<?xml version="1.0" standalone="no"?>
<!DOCTYPE svg PUBLIC "-//W3C//DTD SVG 20010904//EN"
 "http://www.w3.org/TR/2001/REC-SVG-20010904/DTD/svg10.dtd">
<svg version="1.0" xmlns="http://www.w3.org/2000/svg"
 width="500.000000pt" height="500.000000pt" viewBox="0 0 500.000000 500.000000"
 preserveAspectRatio="xMidYMid meet">
<metadata>
Created by potrace 1.14, written by Peter Selinger 2001-2017
</metadata>
<g transform="translate(0.000000,500.000000) scale(0.100000,-0.100000)"
fill="#000000" stroke="none">
<path d="M2460 4035 c0 -100 2 -115 16 -115 14 0 16 8 10 46 -3 26 -6 78 -6
115 0 39 -4 69 -10 69 -6 0 -10 -45 -10 -115z"/>
<path d="M2740 4137 c0 -5 37 -191 45 -223 11 -49 33 -34 99 72 36 57 66 106
66 109 0 3 -6 5 -12 5 -7 0 -37 -39 -67 -86 -29 -47 -56 -82 -60 -79 -3 4 -15
50 -26 103 -11 52 -26 97 -32 100 -7 2 -13 2 -13 -1z"/>
<path d="M2050 4086 c0 -17 41 -209 45 -214 3 -4 102 14 139 25 12 3 15 8 8
15 -7 7 -29 6 -67 -2 -31 -6 -58 -10 -60 -8 -2 1 -11 45 -22 97 -10 52 -24 96
-31 99 -6 2 -12 -3 -12 -12z"/>
<path d="M3191 3988 c-5 -13 -25 -58 -45 -101 -20 -43 -36 -80 -36 -83 0 -4
147 -74 156 -74 2 0 4 6 4 13 0 8 -29 26 -64 41 l-65 28 16 34 c9 19 20 34 24
34 3 0 32 -11 63 -25 76 -33 76 -9 0 28 -44 22 -54 31 -49 45 4 9 10 25 12 35
7 22 11 22 75 -8 56 -26 78 -31 78 -16 0 8 -132 71 -150 71 -6 0 -14 -10 -19
-22z"/>
<path d="M1660 3951 c0 -13 79 -192 89 -204 9 -9 141 50 141 63 0 14 -12 12
-64 -11 -26 -11 -51 -19 -57 -17 -6 2 -27 41 -48 88 -34 75 -61 111 -61 81z"/>
<path d="M1343 3759 l-63 -51 72 -93 72 -93 40 29 c77 56 99 77 92 88 -4 7
-28 -6 -64 -34 l-56 -44 -23 21 c-32 30 -29 41 22 79 24 19 45 40 45 47 0 19
-12 14 -64 -27 l-49 -39 -24 28 c-12 15 -23 30 -23 33 0 2 25 24 55 47 30 23
55 46 55 51 0 19 -28 6 -87 -42z"/>
<path d="M3522 3708 c-49 -62 -69 -94 -61 -99 8 -4 20 3 32 19 11 15 24 31 28
36 4 4 21 -3 39 -15 30 -23 32 -27 28 -83 -2 -41 1 -61 10 -63 8 -3 12 6 12
29 0 59 9 75 36 70 47 -9 87 51 68 102 -5 12 -106 96 -116 96 -2 0 -36 -41
-76 -92z m129 21 c29 -23 39 -38 39 -59 0 -40 -30 -56 -67 -36 -33 19 -73 52
-73 61 0 11 44 64 54 64 4 1 26 -13 47 -30z"/>
<path d="M3900 3424 c-19 -61 -32 -83 -63 -109 -47 -40 -32 -59 18 -21 20 16
47 26 67 26 61 0 138 13 132 21 -3 5 -36 9 -75 9 -38 0 -69 4 -69 8 0 5 7 31
15 58 17 55 19 84 7 84 -5 0 -19 -34 -32 -76z"/>
<path d="M1008 3419 c-26 -28 -48 -56 -48 -63 1 -12 164 -141 180 -141 5 0 26
22 45 49 26 38 35 59 35 90 -1 66 -54 116 -124 116 -35 0 -46 -6 -88 -51z
m150 4 c23 -14 42 -51 42 -82 0 -9 -14 -36 -32 -58 l-31 -41 -71 56 c-39 30
-73 57 -75 58 -8 7 53 70 78 81 28 13 53 9 89 -14z"/>
<path d="M992 3063 c-50 -122 -79 -215 -104 -331 -20 -93 -23 -135 -23 -322 1
-241 14 -330 81 -529 61 -184 238 -490 288 -499 14 -3 8 10 -26 55 -288 376
-394 878 -283 1348 26 111 65 225 101 297 28 55 28 58 11 58 -7 0 -28 -35 -45
-77z"/>
<path d="M3966 3109 c33 -65 83 -208 107 -309 70 -289 60 -595 -29 -883 -37
-120 -153 -349 -229 -450 -45 -60 -60 -88 -48 -85 20 4 114 131 168 228 95
169 170 395 195 584 19 137 8 427 -19 556 -37 168 -121 390 -148 390 -11 0
-11 -6 3 -31z"/>
<path d="M3467 2668 c-6 -186 -24 -301 -62 -396 -19 -46 -66 -92 -95 -92 -51
0 -66 107 -30 204 21 55 84 130 121 141 31 10 11 25 -33 25 -111 0 -198 -97
-223 -248 -22 -133 73 -230 173 -178 29 16 83 70 99 100 9 15 11 12 16 -21 4
-24 18 -51 33 -67 48 -47 54 -38 54 80 0 58 12 191 26 296 29 220 25 268 -28
313 -16 14 -33 25 -37 25 -5 0 -11 -82 -14 -182z"/>
<path d="M1793 2692 c-1 -70 -13 -215 -27 -322 -29 -232 -27 -243 44 -248 l45
-3 1 88 c2 64 8 104 24 146 25 67 73 127 101 127 35 0 39 -39 19 -170 -26
-167 -13 -200 81 -200 41 0 42 0 24 20 -19 21 -18 90 5 253 14 100 2 150 -39
167 -17 6 -43 9 -59 6 -34 -8 -102 -75 -130 -131 -27 -51 -27 -37 -6 133 19
156 14 202 -27 237 -51 42 -54 37 -56 -103z"/>
<path d="M1387 2726 c-77 -29 -112 -81 -105 -162 6 -70 33 -108 128 -178 97
-71 118 -94 126 -134 5 -26 1 -36 -24 -62 -66 -65 -164 -24 -164 70 0 3 3 23
6 44 l7 39 -37 -6 c-107 -18 -121 -139 -23 -204 38 -25 51 -28 128 -28 101 0
147 18 189 73 21 28 27 46 27 86 0 68 -20 94 -132 177 -51 38 -99 82 -108 98
-21 42 -19 97 5 121 27 27 89 27 118 0 27 -25 30 -94 6 -128 -15 -21 -14 -22
20 -22 54 0 97 43 98 97 0 46 -21 82 -66 109 -39 23 -149 29 -199 10z"/>
<path d="M3686 2724 c-21 -54 11 -94 76 -94 35 0 38 2 44 37 6 31 3 39 -16 55
-28 23 -95 24 -104 2z"/>
<path d="M2335 2552 c-79 -48 -125 -142 -125 -252 0 -69 31 -136 79 -167 65
-43 179 -25 238 39 87 93 100 295 24 363 -48 42 -151 12 -202 -58 -16 -22 -29
-37 -29 -33 0 16 30 62 54 85 14 14 26 28 26 33 0 14 -34 9 -65 -10z m152 -79
c28 -43 23 -163 -9 -233 -60 -131 -158 -95 -158 57 0 138 114 257 167 176z"/>
<path d="M2815 2556 c-78 -35 -130 -133 -130 -246 0 -130 58 -200 164 -200
118 0 193 73 221 218 21 106 -15 206 -81 227 -43 14 -107 -15 -155 -69 l-46
-51 20 40 c11 22 29 49 41 59 39 35 21 47 -34 22z m152 -93 c11 -27 14 -58 11
-109 -8 -121 -66 -207 -129 -191 -33 9 -50 41 -56 107 -10 110 56 230 126 230
28 0 34 -5 48 -37z"/>
<path d="M3692 2561 c-5 -3 -12 -46 -16 -96 -3 -49 -9 -125 -12 -167 -9 -107
0 -144 39 -168 18 -11 35 -20 40 -20 4 0 7 37 7 83 0 45 7 125 16 177 19 114
20 156 5 174 -13 15 -65 26 -79 17z"/>
<path d="M1534 1222 c-34 -46 -40 -59 -18 -40 18 16 22 16 42 2 18 -13 20 -19
11 -37 -6 -13 2 -7 20 13 17 19 30 40 30 45 0 6 -6 2 -13 -7 -17 -23 -29 -23
-49 0 -13 14 -14 21 -5 30 6 6 9 14 7 17 -3 2 -14 -8 -25 -23z"/>
<path d="M3442 1214 c-26 -18 -28 -37 -6 -58 20 -20 27 -20 54 2 22 18 22 19
5 45 -20 31 -23 32 -53 11z m46 -28 c4 -21 -14 -37 -34 -29 -16 6 -26 32 -18
44 10 17 49 5 52 -15z"/>
<path d="M3304 1120 c-12 -5 -24 -15 -27 -24 -16 -41 31 -70 64 -40 23 21 23
23 1 51 -13 16 -22 19 -38 13z m34 -38 c4 -30 -26 -42 -44 -17 -10 14 -11 22
-2 32 16 20 42 12 46 -15z"/>
<path d="M1682 1108 c-22 -22 -14 -58 14 -69 15 -5 28 -8 28 -7 1 2 9 14 18
28 14 24 14 26 -8 43 -27 20 -36 21 -52 5z m46 -32 c-4 -25 -36 -34 -44 -12
-8 21 13 46 32 39 8 -3 14 -15 12 -27z"/>
<path d="M3177 1015 c9 -19 18 -33 21 -31 4 5 -26 66 -33 66 -3 0 3 -16 12
-35z"/>
<path d="M1835 1010 c-9 -18 -14 -34 -11 -37 2 -3 12 9 21 27 9 18 14 34 11
37 -2 3 -12 -9 -21 -27z"/>
<path d="M1879 1021 c12 -8 13 -14 3 -37 -17 -37 -8 -42 11 -5 15 29 7 51 -17
51 -6 0 -5 -4 3 -9z"/>
<path d="M1927 999 c8 -8 9 -19 2 -37 -14 -36 -4 -39 11 -3 12 31 7 51 -13 51
-8 0 -8 -3 0 -11z"/>
<path d="M3060 999 c0 -5 -4 -7 -10 -4 -14 8 -12 -14 4 -50 13 -30 13 -30 12
17 -1 27 -2 48 -3 48 -2 0 -3 -5 -3 -11z"/>
<path d="M2048 948 l-15 -53 28 -9 c20 -6 33 -5 44 4 29 24 12 70 -26 70 -12
0 -16 6 -12 20 3 11 3 20 0 20 -2 0 -11 -24 -19 -52z m56 -14 c7 -19 -10 -44
-29 -44 -18 0 -27 30 -14 46 15 19 35 18 43 -2z"/>
<path d="M2887 944 c-14 -14 -7 -53 12 -63 13 -8 23 -6 37 5 18 14 18 15 -2 5
-20 -10 -34 -6 -34 10 0 4 12 10 26 13 14 4 24 12 21 19 -4 14 -49 22 -60 11z
m43 -14 c0 -5 -9 -10 -20 -10 -11 0 -20 5 -20 10 0 6 9 10 20 10 11 0 20 -4
20 -10z"/>
<path d="M2219 898 c-8 -34 10 -61 37 -56 19 3 32 27 32 63 0 12 -5 6 -12 -15
-7 -19 -19 -35 -27 -35 -8 0 -16 14 -19 35 -6 34 -6 34 -11 8z"/>
<path d="M2763 890 c2 -29 -1 -35 -18 -35 -14 0 -21 8 -23 28 -2 15 -8 27 -13
27 -8 0 -3 -43 8 -63 2 -4 18 -6 34 -5 31 2 37 22 19 63 -7 16 -9 13 -7 -15z"/>
<path d="M2391 860 l1 -35 8 29 c5 16 15 33 22 37 8 5 5 8 -10 6 -18 -1 -22
-7 -21 -37z"/>
<path d="M2537 893 c-25 -24 9 -77 42 -65 8 3 12 -1 9 -9 -3 -8 -14 -14 -26
-13 -12 0 -19 -3 -16 -8 9 -14 43 -8 52 10 5 9 7 34 5 55 -5 33 -8 37 -32 37
-15 0 -31 -3 -34 -7z m53 -28 c0 -20 -5 -25 -25 -25 -18 0 -25 5 -25 18 0 24
8 32 32 32 13 0 18 -7 18 -25z"/>
</g>
</svg>
